<svg xmlns="http://www.w3.org/2000/svg" width="16" height="16" fill="#25D366" class="bi bi-whatsapp" viewBox="0 0 16 16">
  <path d="M13.601 2.326A7.854 7.854 0 0 0 7.994 0C3.627 0 .068 3.558.064 7.926c0 1.399.366 2.76 1.06 3.97l-1.127 4.113 4.209-1.105a7.848 7.848 0 0 0 3.792.98h.003c4.366 0 7.925-3.559 7.925-7.929 0-2.108-.82-4.092-2.312-5.586zM7.994 14.521a6.573 6.573 0 0 1-3.356-.92l-.24-.144-2.494.654.666-2.433-.156-.251a6.56 6.56 0 0 1-1.007-3.505c0-3.626 2.957-6.584 6.591-6.584a6.56 6.56 0 0 1 4.66 1.931 6.557 6.557 0 0 1 1.928 4.66c0 3.627-2.958 6.585-6.59 6.585zM11.536 10.13c-.193-.097-1.14-.563-1.317-.627-.176-.065-.306-.097-.432.097-.127.194-.49.627-.602.735-.11.11-.22.127-.413.031-.194-.097-.818-.302-1.557-.963-.575-.513-.961-1.146-1.074-1.339-.113-.194-.012-.299.085-.395.087-.085.193-.225.29-.338.096-.113.128-.192.193-.321.065-.13.032-.245-.017-.34-.049-.098-.432-1.042-.593-1.429-.156-.381-.311-.33-.427-.336l-.365-.007c-.127 0-.332.049-.506.236-.174.186-.665.649-.665 1.582 0 .933.681 1.837.776 1.967.095.129 1.34 2.046 3.245 2.869.454.196.807.311 1.082.399.456.144.87.124 1.198.077.367-.054 1.14-.466 1.3-.914.159-.448.159-.831.11-.914-.05-.083-.183-.127-.376-.225z"/>
</svg>
